<mxfile host="65bd71144e">
    <diagram id="zwhzx0fq_dn5bXMq_F6X" name="Page-1">
        <mxGraphModel dx="1461" dy="688" grid="1" gridSize="10" guides="1" tooltips="1" connect="1" arrows="1" fold="1" page="1" pageScale="1" pageWidth="1169" pageHeight="827" math="0" shadow="0">
            <root>
                <mxCell id="0"/>
                <mxCell id="1" parent="0"/>
                <mxCell id="119" value="&lt;i&gt;&lt;br&gt;&lt;/i&gt;" style="whiteSpace=wrap;html=1;" vertex="1" parent="1">
                    <mxGeometry x="770" y="400" width="390" height="280" as="geometry"/>
                </mxCell>
                <mxCell id="118" value="&lt;i&gt;&lt;br&gt;&lt;/i&gt;" style="whiteSpace=wrap;html=1;" vertex="1" parent="1">
                    <mxGeometry x="400" y="400" width="230" height="280" as="geometry"/>
                </mxCell>
                <mxCell id="54" value="&lt;i&gt;Show&lt;br&gt;MODEL&lt;br&gt;&lt;/i&gt;" style="whiteSpace=wrap;html=1;fillColor=#f5f5f5;fontColor=#333333;strokeColor=#666666;" vertex="1" parent="1">
                    <mxGeometry x="570" y="400" width="60" height="40" as="geometry"/>
                </mxCell>
                <mxCell id="2" value="HtmlDoc" style="whiteSpace=wrap;html=1;fillColor=#f5f5f5;strokeColor=#666666;fontColor=#333333;" parent="1" vertex="1">
                    <mxGeometry x="342.5" y="280" width="120" height="40" as="geometry"/>
                </mxCell>
                <mxCell id="10" style="edgeStyle=none;html=1;exitX=0.5;exitY=1;exitDx=0;exitDy=0;entryX=0.5;entryY=0;entryDx=0;entryDy=0;fillColor=#f8cecc;strokeColor=#b85450;" parent="1" source="3" target="2" edge="1">
                    <mxGeometry relative="1" as="geometry"/>
                </mxCell>
                <mxCell id="3" value="BasicDoc" style="whiteSpace=wrap;html=1;fillColor=#f5f5f5;strokeColor=#666666;fontColor=#333333;" parent="1" vertex="1">
                    <mxGeometry x="342.5" y="220" width="120" height="40" as="geometry"/>
                </mxCell>
                <mxCell id="18" style="edgeStyle=none;html=1;fillColor=#f8cecc;strokeColor=#b85450;" parent="1" source="4" target="3" edge="1">
                    <mxGeometry relative="1" as="geometry">
                        <Array as="points">
                            <mxPoint x="372.5" y="190"/>
                            <mxPoint x="402.5" y="190"/>
                        </Array>
                    </mxGeometry>
                </mxCell>
                <mxCell id="4" value="AboutDoc" style="whiteSpace=wrap;html=1;fillColor=#fff2cc;strokeColor=#d6b656;" parent="1" vertex="1">
                    <mxGeometry x="330" y="130" width="80" height="40" as="geometry"/>
                </mxCell>
                <mxCell id="17" style="edgeStyle=none;html=1;fillColor=#f8cecc;strokeColor=#b85450;" parent="1" source="5" target="3" edge="1">
                    <mxGeometry relative="1" as="geometry">
                        <Array as="points">
                            <mxPoint x="282.5" y="190"/>
                            <mxPoint x="402.5" y="190"/>
                        </Array>
                    </mxGeometry>
                </mxCell>
                <mxCell id="5" value="HomeDoc" style="whiteSpace=wrap;html=1;fillColor=#fff2cc;strokeColor=#d6b656;" parent="1" vertex="1">
                    <mxGeometry x="240" y="130" width="80" height="40" as="geometry"/>
                </mxCell>
                <mxCell id="83" style="edgeStyle=none;html=1;startArrow=none;startFill=0;fillColor=#f8cecc;strokeColor=#b85450;" edge="1" parent="1" source="6" target="3">
                    <mxGeometry relative="1" as="geometry">
                        <Array as="points">
                            <mxPoint x="462.5" y="190"/>
                            <mxPoint x="402.5" y="190"/>
                        </Array>
                    </mxGeometry>
                </mxCell>
                <mxCell id="6" value="FormDoc" style="whiteSpace=wrap;html=1;fillColor=#d5e8d4;strokeColor=#82b366;" parent="1" vertex="1">
                    <mxGeometry x="420" y="130" width="80" height="40" as="geometry"/>
                </mxCell>
                <mxCell id="20" style="edgeStyle=none;html=1;fillColor=#f8cecc;strokeColor=#b85450;" parent="1" source="7" target="3" edge="1">
                    <mxGeometry relative="1" as="geometry">
                        <Array as="points">
                            <mxPoint x="547.5" y="190"/>
                            <mxPoint x="402.5" y="190"/>
                        </Array>
                    </mxGeometry>
                </mxCell>
                <mxCell id="7" value="ProductDoc" style="whiteSpace=wrap;html=1;fillColor=#dae8fc;strokeColor=#6c8ebf;" parent="1" vertex="1">
                    <mxGeometry x="505" y="130" width="80" height="40" as="geometry"/>
                </mxCell>
                <mxCell id="21" style="edgeStyle=none;html=1;fillColor=#f8cecc;strokeColor=#b85450;" parent="1" source="8" target="6" edge="1">
                    <mxGeometry relative="1" as="geometry">
                        <Array as="points">
                            <mxPoint x="320" y="100"/>
                            <mxPoint x="460" y="100"/>
                        </Array>
                    </mxGeometry>
                </mxCell>
                <mxCell id="8" value="ContactDoc" style="whiteSpace=wrap;html=1;fillColor=#d5e8d4;strokeColor=#82b366;" parent="1" vertex="1">
                    <mxGeometry x="270" y="40" width="100" height="40" as="geometry"/>
                </mxCell>
                <mxCell id="22" style="edgeStyle=none;html=1;fillColor=#f8cecc;strokeColor=#b85450;" parent="1" source="9" target="6" edge="1">
                    <mxGeometry relative="1" as="geometry">
                        <Array as="points">
                            <mxPoint x="210" y="100"/>
                            <mxPoint x="460" y="100"/>
                        </Array>
                    </mxGeometry>
                </mxCell>
                <mxCell id="9" value="LoginDoc" style="whiteSpace=wrap;html=1;fillColor=#d5e8d4;strokeColor=#82b366;" parent="1" vertex="1">
                    <mxGeometry x="160" y="40" width="100" height="40" as="geometry"/>
                </mxCell>
                <mxCell id="24" style="edgeStyle=none;html=1;fillColor=#f8cecc;strokeColor=#b85450;" parent="1" source="23" target="6" edge="1">
                    <mxGeometry relative="1" as="geometry">
                        <Array as="points">
                            <mxPoint x="430" y="100"/>
                            <mxPoint x="460" y="100"/>
                        </Array>
                    </mxGeometry>
                </mxCell>
                <mxCell id="23" value="RegisterDoc" style="whiteSpace=wrap;html=1;fillColor=#d5e8d4;strokeColor=#82b366;" parent="1" vertex="1">
                    <mxGeometry x="380" y="40" width="100" height="40" as="geometry"/>
                </mxCell>
                <mxCell id="28" style="edgeStyle=none;html=1;fillColor=#f8cecc;strokeColor=#b85450;" parent="1" source="27" target="6" edge="1">
                    <mxGeometry relative="1" as="geometry">
                        <Array as="points">
                            <mxPoint x="540" y="100"/>
                            <mxPoint x="460" y="100"/>
                        </Array>
                    </mxGeometry>
                </mxCell>
                <mxCell id="27" value="UserpageDoc" style="whiteSpace=wrap;html=1;fillColor=#d5e8d4;strokeColor=#82b366;" parent="1" vertex="1">
                    <mxGeometry x="490" y="40" width="100" height="40" as="geometry"/>
                </mxCell>
                <mxCell id="33" style="edgeStyle=none;html=1;fillColor=#f8cecc;strokeColor=#b85450;" parent="1" source="29" target="7" edge="1">
                    <mxGeometry relative="1" as="geometry">
                        <Array as="points">
                            <mxPoint x="650" y="100"/>
                            <mxPoint x="545" y="100"/>
                        </Array>
                    </mxGeometry>
                </mxCell>
                <mxCell id="29" value="CartDoc" style="whiteSpace=wrap;html=1;fillColor=#dae8fc;strokeColor=#6c8ebf;" parent="1" vertex="1">
                    <mxGeometry x="600" y="40" width="100" height="40" as="geometry"/>
                </mxCell>
                <mxCell id="34" style="edgeStyle=none;html=1;fillColor=#f8cecc;strokeColor=#b85450;" parent="1" source="30" target="7" edge="1">
                    <mxGeometry relative="1" as="geometry">
                        <Array as="points">
                            <mxPoint x="760" y="100"/>
                            <mxPoint x="545" y="100"/>
                        </Array>
                    </mxGeometry>
                </mxCell>
                <mxCell id="30" value="DetailDoc" style="whiteSpace=wrap;html=1;fillColor=#dae8fc;strokeColor=#6c8ebf;" parent="1" vertex="1">
                    <mxGeometry x="710" y="40" width="100" height="40" as="geometry"/>
                </mxCell>
                <mxCell id="35" style="edgeStyle=none;html=1;fillColor=#f8cecc;strokeColor=#b85450;" parent="1" source="31" target="7" edge="1">
                    <mxGeometry relative="1" as="geometry">
                        <Array as="points">
                            <mxPoint x="870" y="100"/>
                            <mxPoint x="545" y="100"/>
                        </Array>
                    </mxGeometry>
                </mxCell>
                <mxCell id="31" value="WebshopDoc" style="whiteSpace=wrap;html=1;fillColor=#dae8fc;strokeColor=#6c8ebf;" parent="1" vertex="1">
                    <mxGeometry x="820" y="40" width="100" height="40" as="geometry"/>
                </mxCell>
                <mxCell id="42" style="edgeStyle=none;html=1;entryX=0;entryY=0.5;entryDx=0;entryDy=0;fillColor=#d5e8d4;strokeColor=#82b366;exitX=1;exitY=0.75;exitDx=0;exitDy=0;" edge="1" parent="1" source="36" target="40">
                    <mxGeometry relative="1" as="geometry">
                        <Array as="points">
                            <mxPoint x="800" y="470"/>
                            <mxPoint x="800" y="540"/>
                        </Array>
                    </mxGeometry>
                </mxCell>
                <mxCell id="43" style="edgeStyle=none;html=1;entryX=0;entryY=0.5;entryDx=0;entryDy=0;fillColor=#d5e8d4;strokeColor=#82b366;exitX=1;exitY=0.75;exitDx=0;exitDy=0;" edge="1" parent="1" source="36" target="39">
                    <mxGeometry relative="1" as="geometry">
                        <Array as="points">
                            <mxPoint x="800" y="470"/>
                            <mxPoint x="800" y="620"/>
                        </Array>
                    </mxGeometry>
                </mxCell>
                <mxCell id="44" style="edgeStyle=none;html=1;startArrow=classic;startFill=1;fillColor=#dae8fc;strokeColor=#6c8ebf;entryX=0;entryY=0.5;entryDx=0;entryDy=0;exitX=1;exitY=0.5;exitDx=0;exitDy=0;" edge="1" parent="1" source="36" target="38">
                    <mxGeometry relative="1" as="geometry"/>
                </mxCell>
                <mxCell id="45" style="edgeStyle=none;html=1;exitX=0;exitY=0.5;exitDx=0;exitDy=0;" edge="1" parent="1" source="36">
                    <mxGeometry relative="1" as="geometry">
                        <mxPoint x="560" y="460" as="targetPoint"/>
                    </mxGeometry>
                </mxCell>
                <mxCell id="46" style="edgeStyle=none;html=1;exitX=1;exitY=0.75;exitDx=0;exitDy=0;entryX=0;entryY=0.75;entryDx=0;entryDy=0;startArrow=none;startFill=0;fillColor=#d5e8d4;strokeColor=#82b366;" edge="1" parent="1" source="36" target="38">
                    <mxGeometry relative="1" as="geometry"/>
                </mxCell>
                <mxCell id="36" value="PageController" style="whiteSpace=wrap;html=1;" vertex="1" parent="1">
                    <mxGeometry x="640" y="440" width="120" height="40" as="geometry"/>
                </mxCell>
                <mxCell id="38" value="PageModel" style="whiteSpace=wrap;html=1;" vertex="1" parent="1">
                    <mxGeometry x="840" y="440" width="120" height="40" as="geometry"/>
                </mxCell>
                <mxCell id="53" style="edgeStyle=none;html=1;exitX=0.75;exitY=0;exitDx=0;exitDy=0;entryX=0.5;entryY=1;entryDx=0;entryDy=0;startArrow=none;startFill=0;fillColor=#f8cecc;strokeColor=#b85450;" edge="1" parent="1" source="39" target="38">
                    <mxGeometry relative="1" as="geometry">
                        <Array as="points">
                            <mxPoint x="930" y="510"/>
                            <mxPoint x="900" y="510"/>
                        </Array>
                    </mxGeometry>
                </mxCell>
                <mxCell id="39" value="ShopModel" style="whiteSpace=wrap;html=1;" vertex="1" parent="1">
                    <mxGeometry x="840" y="600" width="120" height="40" as="geometry"/>
                </mxCell>
                <mxCell id="51" style="edgeStyle=none;html=1;exitX=0.5;exitY=0;exitDx=0;exitDy=0;entryX=0.5;entryY=1;entryDx=0;entryDy=0;startArrow=none;startFill=0;fillColor=#f8cecc;strokeColor=#b85450;" edge="1" parent="1" source="40" target="38">
                    <mxGeometry relative="1" as="geometry"/>
                </mxCell>
                <mxCell id="40" value="UserModel" style="whiteSpace=wrap;html=1;" vertex="1" parent="1">
                    <mxGeometry x="840" y="520" width="120" height="40" as="geometry"/>
                </mxCell>
                <mxCell id="47" value="CREATES" style="whiteSpace=wrap;html=1;fillColor=#d5e8d4;strokeColor=#82b366;" vertex="1" parent="1">
                    <mxGeometry x="640" y="360" width="120" height="20" as="geometry"/>
                </mxCell>
                <mxCell id="48" value="COMMUNICATES" style="whiteSpace=wrap;html=1;fillColor=#dae8fc;strokeColor=#6c8ebf;" vertex="1" parent="1">
                    <mxGeometry x="640" y="380" width="120" height="20" as="geometry"/>
                </mxCell>
                <mxCell id="50" value="EXTENDS" style="whiteSpace=wrap;html=1;fillColor=#f8cecc;strokeColor=#b85450;" vertex="1" parent="1">
                    <mxGeometry x="640" y="400" width="120" height="20" as="geometry"/>
                </mxCell>
                <mxCell id="55" value="&lt;i&gt;Create&lt;br&gt;MODEL&lt;br&gt;&lt;/i&gt;" style="whiteSpace=wrap;html=1;fillColor=#f5f5f5;fontColor=#333333;strokeColor=#666666;" vertex="1" parent="1">
                    <mxGeometry x="770" y="400" width="60" height="40" as="geometry"/>
                </mxCell>
                <mxCell id="56" value="PageView" style="whiteSpace=wrap;html=1;" vertex="1" parent="1">
                    <mxGeometry x="440" y="440" width="120" height="40" as="geometry"/>
                </mxCell>
                <mxCell id="117" style="edgeStyle=none;html=1;exitX=0.5;exitY=1;exitDx=0;exitDy=0;dashed=1;startArrow=none;startFill=0;entryX=0;entryY=0.5;entryDx=0;entryDy=0;" edge="1" parent="1" source="57" target="115">
                    <mxGeometry relative="1" as="geometry">
                        <mxPoint x="500" y="570" as="targetPoint"/>
                        <Array as="points">
                            <mxPoint x="500" y="560"/>
                        </Array>
                    </mxGeometry>
                </mxCell>
                <mxCell id="57" value="&lt;i&gt;####Doc&lt;/i&gt;" style="whiteSpace=wrap;html=1;fillColor=#f5f5f5;fontColor=#333333;strokeColor=#666666;" vertex="1" parent="1">
                    <mxGeometry x="440" y="480" width="120" height="20" as="geometry"/>
                </mxCell>
                <mxCell id="59" value="SessionManager" style="whiteSpace=wrap;html=1;" vertex="1" parent="1">
                    <mxGeometry x="1000" y="440" width="120" height="40" as="geometry"/>
                </mxCell>
                <mxCell id="60" value="DB_Repository" style="whiteSpace=wrap;html=1;" vertex="1" parent="1">
                    <mxGeometry x="1000" y="490" width="120" height="40" as="geometry"/>
                </mxCell>
                <mxCell id="61" value="Validator" style="whiteSpace=wrap;html=1;" vertex="1" parent="1">
                    <mxGeometry x="1000" y="540" width="120" height="40" as="geometry"/>
                </mxCell>
                <mxCell id="62" style="edgeStyle=none;html=1;startArrow=classic;startFill=1;fillColor=#dae8fc;strokeColor=#6c8ebf;entryX=0;entryY=0.5;entryDx=0;entryDy=0;" edge="1" parent="1" target="59">
                    <mxGeometry relative="1" as="geometry">
                        <mxPoint x="960" y="460" as="sourcePoint"/>
                        <mxPoint x="980" y="400" as="targetPoint"/>
                    </mxGeometry>
                </mxCell>
                <mxCell id="63" style="edgeStyle=none;html=1;startArrow=classic;startFill=1;fillColor=#dae8fc;strokeColor=#6c8ebf;entryX=0;entryY=0.5;entryDx=0;entryDy=0;exitX=1;exitY=0.5;exitDx=0;exitDy=0;" edge="1" parent="1" source="38" target="60">
                    <mxGeometry relative="1" as="geometry">
                        <mxPoint x="970" y="470" as="sourcePoint"/>
                        <mxPoint x="1010" y="430" as="targetPoint"/>
                        <Array as="points">
                            <mxPoint x="980" y="460"/>
                            <mxPoint x="980" y="510"/>
                        </Array>
                    </mxGeometry>
                </mxCell>
                <mxCell id="64" style="edgeStyle=none;html=1;startArrow=classic;startFill=1;fillColor=#dae8fc;strokeColor=#6c8ebf;entryX=0;entryY=0.5;entryDx=0;entryDy=0;" edge="1" parent="1" target="61">
                    <mxGeometry relative="1" as="geometry">
                        <mxPoint x="960" y="460" as="sourcePoint"/>
                        <mxPoint x="980" y="620" as="targetPoint"/>
                        <Array as="points">
                            <mxPoint x="980" y="460"/>
                            <mxPoint x="980" y="560"/>
                        </Array>
                    </mxGeometry>
                </mxCell>
                <mxCell id="96" style="edgeStyle=none;html=1;startArrow=none;startFill=0;fillColor=#f8cecc;strokeColor=#b85450;" edge="1" parent="1" source="66" target="6">
                    <mxGeometry relative="1" as="geometry">
                        <mxPoint x="100" y="110" as="targetPoint"/>
                        <Array as="points">
                            <mxPoint x="100" y="100"/>
                            <mxPoint x="460" y="100"/>
                        </Array>
                    </mxGeometry>
                </mxCell>
                <mxCell id="66" value="ThanksDoc" style="whiteSpace=wrap;html=1;fillColor=#d5e8d4;strokeColor=#82b366;" vertex="1" parent="1">
                    <mxGeometry x="50" y="40" width="100" height="40" as="geometry"/>
                </mxCell>
                <mxCell id="86" style="edgeStyle=none;html=1;startArrow=none;startFill=0;fillColor=#f8cecc;strokeColor=#b85450;" edge="1" parent="1" source="72" target="3">
                    <mxGeometry relative="1" as="geometry">
                        <Array as="points">
                            <mxPoint x="102.5" y="190"/>
                            <mxPoint x="402.5" y="190"/>
                        </Array>
                    </mxGeometry>
                </mxCell>
                <mxCell id="72" value="UpdatedDoc" style="whiteSpace=wrap;html=1;fillColor=#fff2cc;strokeColor=#d6b656;" vertex="1" parent="1">
                    <mxGeometry x="60" y="130" width="80" height="40" as="geometry"/>
                </mxCell>
                <mxCell id="85" style="edgeStyle=none;html=1;startArrow=none;startFill=0;fillColor=#f8cecc;strokeColor=#b85450;" edge="1" parent="1" source="73" target="3">
                    <mxGeometry relative="1" as="geometry">
                        <Array as="points">
                            <mxPoint x="192.5" y="190"/>
                            <mxPoint x="402.5" y="190"/>
                        </Array>
                    </mxGeometry>
                </mxCell>
                <mxCell id="73" value="UnknownDoc" style="whiteSpace=wrap;html=1;fillColor=#fff2cc;strokeColor=#d6b656;" vertex="1" parent="1">
                    <mxGeometry x="150" y="130" width="80" height="40" as="geometry"/>
                </mxCell>
                <mxCell id="99" style="edgeStyle=none;html=1;exitX=0.5;exitY=0;exitDx=0;exitDy=0;fillColor=#d5e8d4;strokeColor=#82b366;entryX=0.5;entryY=0;entryDx=0;entryDy=0;dashed=1;" edge="1" parent="1" source="56" target="23">
                    <mxGeometry relative="1" as="geometry">
                        <mxPoint x="430" y="20" as="targetPoint"/>
                        <mxPoint x="500" y="414" as="sourcePoint"/>
                        <Array as="points">
                            <mxPoint x="500" y="240"/>
                            <mxPoint x="960" y="240"/>
                            <mxPoint x="960" y="20"/>
                            <mxPoint x="430" y="20"/>
                        </Array>
                    </mxGeometry>
                </mxCell>
                <mxCell id="100" style="edgeStyle=none;html=1;exitX=0.5;exitY=0;exitDx=0;exitDy=0;fillColor=#d5e8d4;strokeColor=#82b366;entryX=0.5;entryY=0;entryDx=0;entryDy=0;dashed=1;" edge="1" parent="1" target="66">
                    <mxGeometry relative="1" as="geometry">
                        <mxPoint x="430" y="40" as="targetPoint"/>
                        <mxPoint x="500" y="440" as="sourcePoint"/>
                        <Array as="points">
                            <mxPoint x="500" y="240"/>
                            <mxPoint x="960" y="240"/>
                            <mxPoint x="960" y="20"/>
                            <mxPoint x="100" y="20"/>
                        </Array>
                    </mxGeometry>
                </mxCell>
                <mxCell id="101" style="edgeStyle=none;html=1;exitX=0.5;exitY=0;exitDx=0;exitDy=0;fillColor=#d5e8d4;strokeColor=#82b366;entryX=0.5;entryY=0;entryDx=0;entryDy=0;dashed=1;" edge="1" parent="1" target="9">
                    <mxGeometry relative="1" as="geometry">
                        <mxPoint x="100" y="40" as="targetPoint"/>
                        <mxPoint x="500" y="440" as="sourcePoint"/>
                        <Array as="points">
                            <mxPoint x="500" y="240"/>
                            <mxPoint x="960" y="240"/>
                            <mxPoint x="960" y="20"/>
                            <mxPoint x="210" y="20"/>
                        </Array>
                    </mxGeometry>
                </mxCell>
                <mxCell id="102" style="edgeStyle=none;html=1;exitX=0.5;exitY=0;exitDx=0;exitDy=0;fillColor=#d5e8d4;strokeColor=#82b366;entryX=0.5;entryY=0;entryDx=0;entryDy=0;dashed=1;" edge="1" parent="1" target="8">
                    <mxGeometry relative="1" as="geometry">
                        <mxPoint x="100" y="40" as="targetPoint"/>
                        <mxPoint x="500" y="440" as="sourcePoint"/>
                        <Array as="points">
                            <mxPoint x="500" y="240"/>
                            <mxPoint x="960" y="240"/>
                            <mxPoint x="960" y="20"/>
                            <mxPoint x="320" y="20"/>
                        </Array>
                    </mxGeometry>
                </mxCell>
                <mxCell id="103" style="edgeStyle=none;html=1;exitX=0.5;exitY=0;exitDx=0;exitDy=0;fillColor=#d5e8d4;strokeColor=#82b366;entryX=0.5;entryY=0;entryDx=0;entryDy=0;dashed=1;" edge="1" parent="1" target="27">
                    <mxGeometry relative="1" as="geometry">
                        <mxPoint x="100" y="40" as="targetPoint"/>
                        <mxPoint x="500" y="440" as="sourcePoint"/>
                        <Array as="points">
                            <mxPoint x="500" y="240"/>
                            <mxPoint x="960" y="240"/>
                            <mxPoint x="960" y="20"/>
                            <mxPoint x="540" y="20"/>
                        </Array>
                    </mxGeometry>
                </mxCell>
                <mxCell id="104" style="edgeStyle=none;html=1;exitX=0.5;exitY=0;exitDx=0;exitDy=0;fillColor=#d5e8d4;strokeColor=#82b366;entryX=0.5;entryY=0;entryDx=0;entryDy=0;dashed=1;" edge="1" parent="1" target="29">
                    <mxGeometry relative="1" as="geometry">
                        <mxPoint x="100" y="40" as="targetPoint"/>
                        <mxPoint x="500" y="440" as="sourcePoint"/>
                        <Array as="points">
                            <mxPoint x="500" y="240"/>
                            <mxPoint x="960" y="240"/>
                            <mxPoint x="960" y="20"/>
                            <mxPoint x="650" y="20"/>
                        </Array>
                    </mxGeometry>
                </mxCell>
                <mxCell id="105" style="edgeStyle=none;html=1;exitX=0.5;exitY=0;exitDx=0;exitDy=0;fillColor=#d5e8d4;strokeColor=#82b366;entryX=0.5;entryY=0;entryDx=0;entryDy=0;dashed=1;" edge="1" parent="1" target="30">
                    <mxGeometry relative="1" as="geometry">
                        <mxPoint x="100" y="40" as="targetPoint"/>
                        <mxPoint x="500" y="440" as="sourcePoint"/>
                        <Array as="points">
                            <mxPoint x="500" y="240"/>
                            <mxPoint x="960" y="240"/>
                            <mxPoint x="960" y="20"/>
                            <mxPoint x="760" y="20"/>
                        </Array>
                    </mxGeometry>
                </mxCell>
                <mxCell id="106" style="edgeStyle=none;html=1;exitX=0.5;exitY=0;exitDx=0;exitDy=0;fillColor=#d5e8d4;strokeColor=#82b366;entryX=0.44;entryY=0.05;entryDx=0;entryDy=0;dashed=1;entryPerimeter=0;" edge="1" parent="1" target="31">
                    <mxGeometry relative="1" as="geometry">
                        <mxPoint x="100" y="40" as="targetPoint"/>
                        <mxPoint x="500" y="440" as="sourcePoint"/>
                        <Array as="points">
                            <mxPoint x="500" y="240"/>
                            <mxPoint x="960" y="240"/>
                            <mxPoint x="960" y="20"/>
                            <mxPoint x="864" y="20"/>
                        </Array>
                    </mxGeometry>
                </mxCell>
                <mxCell id="107" style="edgeStyle=none;html=1;exitX=0.5;exitY=0;exitDx=0;exitDy=0;fillColor=#d5e8d4;strokeColor=#82b366;entryX=0.5;entryY=0;entryDx=0;entryDy=0;dashed=1;" edge="1" parent="1" target="4">
                    <mxGeometry relative="1" as="geometry">
                        <mxPoint x="864" y="42" as="targetPoint"/>
                        <mxPoint x="500" y="440" as="sourcePoint"/>
                        <Array as="points">
                            <mxPoint x="500" y="360"/>
                            <mxPoint x="40" y="360"/>
                            <mxPoint x="40" y="110"/>
                            <mxPoint x="370" y="110"/>
                        </Array>
                    </mxGeometry>
                </mxCell>
                <mxCell id="108" style="edgeStyle=none;html=1;exitX=0.5;exitY=0;exitDx=0;exitDy=0;fillColor=#d5e8d4;strokeColor=#82b366;entryX=0.5;entryY=0;entryDx=0;entryDy=0;dashed=1;" edge="1" parent="1" target="5">
                    <mxGeometry relative="1" as="geometry">
                        <mxPoint x="370" y="130" as="targetPoint"/>
                        <mxPoint x="500" y="440" as="sourcePoint"/>
                        <Array as="points">
                            <mxPoint x="500" y="360"/>
                            <mxPoint x="40" y="360"/>
                            <mxPoint x="40" y="110"/>
                            <mxPoint x="280" y="110"/>
                        </Array>
                    </mxGeometry>
                </mxCell>
                <mxCell id="109" style="edgeStyle=none;html=1;exitX=0.5;exitY=0;exitDx=0;exitDy=0;fillColor=#d5e8d4;strokeColor=#82b366;entryX=0.5;entryY=0;entryDx=0;entryDy=0;dashed=1;" edge="1" parent="1" target="73">
                    <mxGeometry relative="1" as="geometry">
                        <mxPoint x="370" y="130" as="targetPoint"/>
                        <mxPoint x="500" y="440" as="sourcePoint"/>
                        <Array as="points">
                            <mxPoint x="500" y="360"/>
                            <mxPoint x="40" y="360"/>
                            <mxPoint x="40" y="110"/>
                            <mxPoint x="190" y="110"/>
                        </Array>
                    </mxGeometry>
                </mxCell>
                <mxCell id="110" style="edgeStyle=none;html=1;exitX=0.5;exitY=0;exitDx=0;exitDy=0;fillColor=#d5e8d4;strokeColor=#82b366;entryX=0.5;entryY=0;entryDx=0;entryDy=0;dashed=1;" edge="1" parent="1" target="72">
                    <mxGeometry relative="1" as="geometry">
                        <mxPoint x="370" y="130" as="targetPoint"/>
                        <mxPoint x="500" y="440" as="sourcePoint"/>
                        <Array as="points">
                            <mxPoint x="500" y="360"/>
                            <mxPoint x="40" y="360"/>
                            <mxPoint x="40" y="110"/>
                            <mxPoint x="100" y="110"/>
                        </Array>
                    </mxGeometry>
                </mxCell>
                <mxCell id="112" style="edgeStyle=none;html=1;exitX=0;exitY=0.25;exitDx=0;exitDy=0;entryX=1;entryY=0.25;entryDx=0;entryDy=0;startArrow=none;startFill=0;fillColor=#f8cecc;strokeColor=#b85450;" edge="1" parent="1" source="38" target="36">
                    <mxGeometry relative="1" as="geometry">
                        <mxPoint x="910" y="530" as="sourcePoint"/>
                        <mxPoint x="910" y="490" as="targetPoint"/>
                    </mxGeometry>
                </mxCell>
                <mxCell id="114" value="Index" style="whiteSpace=wrap;html=1;" vertex="1" parent="1">
                    <mxGeometry x="640" y="500" width="120" height="40" as="geometry"/>
                </mxCell>
                <mxCell id="115" value="Request from&lt;br&gt;CLIENT" style="whiteSpace=wrap;html=1;fillColor=#f5f5f5;fontColor=#333333;strokeColor=#666666;fontStyle=2" vertex="1" parent="1">
                    <mxGeometry x="640" y="540" width="120" height="40" as="geometry"/>
                </mxCell>
                <mxCell id="116" style="edgeStyle=none;html=1;exitX=0.5;exitY=0;exitDx=0;exitDy=0;fillColor=#d5e8d4;strokeColor=#82b366;entryX=0.5;entryY=1;entryDx=0;entryDy=0;" edge="1" parent="1" source="114" target="36">
                    <mxGeometry relative="1" as="geometry">
                        <mxPoint x="570" y="470" as="targetPoint"/>
                        <mxPoint x="650" y="470" as="sourcePoint"/>
                    </mxGeometry>
                </mxCell>
            </root>
        </mxGraphModel>
    </diagram>
</mxfile>